<?xml version="1.0" standalone="no"?><!DOCTYPE svg PUBLIC "-//W3C//DTD SVG 1.1//EN" "http://www.w3.org/Graphics/SVG/1.1/DTD/svg11.dtd"><svg class="icon" width="200px" height="200.00px" viewBox="0 0 1024 1024" version="1.1" xmlns="http://www.w3.org/2000/svg"><path d="M567.6875 484.15625h-8.015625l30.796875 171.28125c20.25-7.171875 38.8125-18.140625 55.265625-32.484375-16.875-20.25-30.375-43.03125-40.921875-67.078125l32.484375-4.21875c8.859375 18.140625 18.984375 34.59375 30.796875 48.515625 24.046875-29.109375 42.1875-67.921875 55.265625-116.4375l-155.671875 0.421875z m122.765625 138.796875c18.5625 16.03125 39.65625 27.84375 63.28125 35.015625l14.765625 4.640625-8.859375 31.640625-14.765625-4.640625c-28.265625-8.859375-54.421875-23.625-76.78125-43.453125-20.671875 18.5625-45.140625 32.90625-71.71875 41.765625l20.671875 115.59375H493.859375L477.40625 879.03125h386.859375c18.140625 0 32.90625-14.765625 32.90625-32.90625V286.71875c0-18.140625-14.765625-32.90625-32.90625-32.90625h-345.515625l25.734375 143.4375-0.84375-0.421875 2.953125 15.609375 0.421875-2.109375 7.171875 40.921875h79.734375v-32.90625h61.59375v32.90625h102.9375v32.90625h-43.03125c-14.34375 57.796875-36.28125 104.203125-64.96875 138.796875zM460.109375 803.09375H160.15625C123.875 803.09375 94.34375 773.5625 94.34375 737.28125V178.296875C94.34375 141.59375 123.875 112.484375 160.15625 112.484375h329.0625L509.46875 220.90625h354.375c36.28125 0 65.8125 29.53125 65.8125 65.8125v559.40625c0 36.28125-29.53125 65.8125-65.8125 65.8125H436.484375l23.625-108.84375z m-155.25-253.125v-34.59375H239.890625V464.328125h60.328125v-34.171875H239.890625V386.703125h64.96875v-34.171875H201.921875V549.96875h102.9375z m158.625 0V451.25c0-17.71875-4.21875-31.640625-12.234375-41.34375-8.015625-9.703125-20.25-14.34375-36.28125-14.34375-9.28125 0-17.71875 1.6875-24.890625 5.484375s-13.078125 9.703125-16.875 16.875h-2.109375l-5.0625-19.40625h-28.6875V549.96875h37.125V478.671875c0-17.71875 2.53125-30.375 7.171875-38.390625 4.640625-7.59375 12.234375-11.390625 22.78125-11.390625 7.59375 0 13.078125 2.53125 16.875 8.015625 3.375 5.484375 5.484375 13.5 5.484375 24.46875v88.59375h36.703125z" /></svg>