<?xml version="1.0" standalone="no"?><!DOCTYPE svg PUBLIC "-//W3C//DTD SVG 1.1//EN" "http://www.w3.org/Graphics/SVG/1.1/DTD/svg11.dtd"><svg class="icon" width="200px" height="196.17px" viewBox="0 0 1044 1024" version="1.1" xmlns="http://www.w3.org/2000/svg"><path d="M562.208 838.4v153.6h-76.8v-153.6h76.8zM265.856 715.6544l54.3168 54.2976-108.6144 108.6144-54.3168-54.3168 108.6144-108.5952z m515.904 0l108.6144 108.5952-54.2976 54.3168-108.6144-108.6144 54.2976-54.2976zM523.808 262.4c137.856 0 249.6 111.744 249.6 249.6s-111.744 249.6-249.6 249.6-249.6-111.744-249.6-249.6 111.744-249.6 249.6-249.6z m0 76.8a172.8 172.8 0 1 0 0 345.6 172.8 172.8 0 0 0 0-345.6z m480 134.4v76.8h-153.6v-76.8h153.6z m-806.4 0v76.8h-153.6v-76.8h153.6zM838.976 142.5344l54.3168 54.3168-108.6144 108.6144-54.2976-54.3168 108.5952-108.6144z m-630.2976 0l108.6144 108.6144-54.3168 54.3168-108.5952-108.6144L208.64 142.5344zM562.208 32v153.6h-76.8V32h76.8z" /></svg>