<svg xmlns="http://www.w3.org/2000/svg" xmlns:xlink="http://www.w3.org/1999/xlink" width="1587" zoomAndPan="magnify" viewBox="0 0 1190.25 1683.749949" height="2245" preserveAspectRatio="xMidYMid meet" version="1.0"><defs><clipPath id="id1"><path d="M 59 306.355469 L 1160.871094 306.355469 L 1160.871094 1377.339844 L 59 1377.339844 Z M 59 306.355469 " clip-rule="nonzero"/></clipPath><clipPath id="id2"><path d="M 0.613281 330 L 1189.398438 330 L 1189.398438 1377.339844 L 0.613281 1377.339844 Z M 0.613281 330 " clip-rule="nonzero"/></clipPath></defs><g clip-path="url(#id1)"><path fill="#5271ff" d="M 987.625 832.355469 L 1098.117188 832.355469 C 1102.53125 832.355469 1106.097656 828.789062 1106.097656 824.382812 L 1106.097656 810.566406 C 1106.097656 806.164062 1102.53125 802.59375 1098.117188 802.59375 L 987.625 802.59375 C 983.222656 802.59375 979.65625 806.164062 979.65625 810.566406 L 979.65625 824.382812 C 979.65625 828.789062 983.222656 832.355469 987.625 832.355469 Z M 1160.097656 738.207031 L 1160.097656 693.515625 L 1135.878906 693.515625 L 1135.878906 738.207031 C 1135.878906 739.792969 1137.167969 741.085938 1138.757812 741.085938 L 1157.21875 741.085938 C 1158.808594 741.085938 1160.097656 739.792969 1160.097656 738.207031 Z M 959.53125 430.382812 L 959.691406 430.347656 L 959.691406 406.644531 C 959.691406 351.257812 1004.574219 306.355469 1059.929688 306.355469 C 1115.300781 306.355469 1160.171875 351.257812 1160.171875 406.644531 L 1160.171875 453.007812 L 1154.621094 453.007812 L 1131.753906 534.25 C 1130.855469 537.4375 1127.546875 539.289062 1124.371094 538.394531 L 1110.257812 534.417969 C 1107.070312 533.519531 1105.222656 530.210938 1106.113281 527.03125 L 1134.023438 427.914062 C 1134.921875 424.734375 1138.21875 422.886719 1141.40625 423.777344 L 1150.042969 426.210938 L 1150.042969 410.992188 C 1150.042969 360.78125 1109.691406 328.691406 1059.929688 328.691406 C 1010.164062 328.691406 969.832031 360.78125 969.832031 410.992188 L 969.832031 427.484375 L 973.648438 426.40625 C 976.832031 425.515625 980.128906 427.363281 981.019531 430.550781 L 1008.9375 529.660156 C 1009.828125 532.847656 1007.980469 536.148438 1004.796875 537.046875 L 990.679688 541.023438 C 987.503906 541.917969 984.199219 540.066406 983.296875 536.890625 L 955.398438 437.769531 C 954.5 434.59375 956.355469 431.285156 959.53125 430.382812 Z M 693.09375 462.402344 L 689.519531 465.980469 L 661.890625 438.335938 L 665.464844 434.761719 Z M 662.167969 425.589844 L 665.742188 422.011719 L 693.371094 449.65625 L 689.796875 453.230469 Z M 91.53125 1377.339844 L 1108.816406 1377.339844 C 1108.816406 1377.339844 1035.035156 1212.660156 950.125 1121.585938 C 865.214844 1030.519531 920.863281 972.738281 861.574219 836.25 C 702.59375 470.234375 453.53125 423.582031 251.5625 475.949219 C -90.835938 564.707031 331.074219 805.261719 158.089844 851.019531 C -14.894531 896.78125 91.53125 1377.339844 91.53125 1377.339844 " fill-opacity="1" fill-rule="nonzero"/></g><path fill="#00c2cb" d="M 1000.800781 1148.539062 L 1119.925781 1148.539062 C 1122.125 1148.539062 1123.910156 1150.324219 1123.910156 1152.515625 L 1123.910156 1161.527344 L 1115.085938 1161.527344 L 1107.089844 1249.414062 L 1013.636719 1249.414062 L 1005.640625 1161.527344 L 996.816406 1161.527344 L 996.816406 1152.515625 C 996.816406 1150.324219 998.601562 1148.539062 1000.800781 1148.539062 Z M 585.234375 1119.078125 C 585.234375 1103.902344 599.75 1091.59375 617.65625 1091.59375 C 635.5625 1091.59375 650.078125 1103.902344 650.078125 1119.078125 C 650.078125 1134.257812 635.5625 1146.558594 617.65625 1146.558594 C 599.75 1146.558594 585.234375 1134.257812 585.234375 1119.078125 Z M 391.242188 998.417969 L 376.785156 1028.421875 L 376.785156 998.417969 Z M 328.613281 1109.582031 L 329.421875 1123.5 L 444.234375 1161.425781 L 447.828125 1149.71875 L 454.394531 1240.441406 L 473.285156 1241.035156 L 471.84375 1227.671875 C 471.351562 1225.453125 472.800781 1223.289062 474.796875 1223.289062 L 749.445312 1223.289062 L 765.167969 1099.917969 L 827.769531 1169.0625 L 922.542969 1114.226562 L 923.65625 1095.753906 C 923.980469 1090.28125 919.96875 1085.515625 914.527344 1084.910156 L 907.777344 1084.167969 L 787.363281 925.648438 L 607.273438 857.015625 L 430.945312 916.070312 L 394.09375 992.507812 L 376.578125 992.507812 C 375.074219 992.507812 373.777344 993.066406 372.671875 994.183594 C 371.574219 995.289062 371.015625 996.605469 371.015625 998.140625 L 371.015625 1033.058594 C 371.015625 1034.589844 371.566406 1035.910156 372.640625 1037.007812 L 343.945312 1096.554688 L 335.820312 1099.117188 C 331.316406 1100.539062 328.34375 1104.851562 328.613281 1109.582031 Z M 235.503906 542.714844 L 214.3125 542.714844 C 212.628906 542.714844 211.265625 541.359375 211.265625 539.679688 L 211.265625 535.960938 L 238.539062 535.960938 L 238.539062 539.679688 C 238.539062 541.359375 237.183594 542.714844 235.503906 542.714844 Z M 549.601562 467.746094 C 544.28125 467.746094 539.953125 463.414062 539.953125 458.089844 C 539.953125 452.765625 544.28125 448.4375 549.601562 448.4375 C 554.914062 448.4375 559.25 452.765625 559.25 458.089844 C 559.25 463.414062 554.914062 467.746094 549.601562 467.746094 Z M 560.191406 387.710938 L 794.933594 387.710938 L 794.933594 528.472656 L 560.191406 528.472656 Z M 288.105469 1017.773438 C 288.921875 1017.773438 289.609375 1018.0625 290.175781 1018.636719 C 290.742188 1019.214844 291.019531 1019.890625 291.019531 1020.679688 L 291.019531 1032.84375 L 296.851562 1032.84375 L 296.851562 992.585938 L 311.507812 992.585938 C 312.316406 992.585938 313.011719 992.863281 313.578125 993.429688 C 314.144531 994.003906 314.421875 994.691406 314.421875 995.5 C 314.421875 996.308594 314.144531 996.996094 313.578125 997.5625 C 313.011719 998.132812 312.316406 998.417969 311.507812 998.417969 L 302.695312 998.417969 L 302.695312 1032.84375 L 311.648438 1032.84375 C 312.453125 1032.84375 313.152344 1033.121094 313.71875 1033.679688 C 314.285156 1034.238281 314.5625 1034.90625 314.5625 1035.695312 C 314.5625 1036.503906 314.285156 1037.199219 313.71875 1037.796875 C 313.152344 1038.382812 312.453125 1038.679688 311.648438 1038.679688 L 288.105469 1038.679688 C 287.296875 1038.679688 286.609375 1038.398438 286.042969 1037.824219 C 285.476562 1037.257812 285.1875 1036.570312 285.1875 1035.761719 L 285.1875 1020.679688 C 285.1875 1019.871094 285.476562 1019.183594 286.042969 1018.617188 C 286.609375 1018.050781 287.296875 1017.773438 288.105469 1017.773438 Z M 333.832031 998.417969 L 351.609375 998.417969 L 351.609375 1032.84375 L 333.832031 1032.84375 Z M 329.71875 994.183594 C 328.621094 995.289062 328.066406 996.605469 328.066406 998.140625 L 328.066406 1033.058594 C 328.066406 1034.609375 328.621094 1035.929688 329.71875 1037.023438 C 330.824219 1038.128906 332.144531 1038.679688 333.695312 1038.679688 L 351.820312 1038.679688 C 353.390625 1038.679688 354.71875 1038.128906 355.816406 1037.023438 C 356.902344 1035.929688 357.449219 1034.609375 357.449219 1033.058594 L 357.449219 998.140625 C 357.449219 996.605469 356.890625 995.289062 355.777344 994.183594 C 354.671875 993.066406 353.355469 992.507812 351.820312 992.507812 L 333.628906 992.507812 C 332.125 992.507812 330.824219 993.066406 329.71875 994.183594 Z M 111.171875 880.09375 L 111.171875 890.722656 L 117.003906 890.722656 L 117.003906 874.121094 C 118.890625 872.328125 120.832031 870.617188 122.835938 868.980469 L 122.835938 890.722656 L 131.796875 890.722656 C 132.605469 890.722656 133.292969 891 133.859375 891.558594 C 134.425781 892.117188 134.703125 892.785156 134.703125 893.574219 C 134.703125 894.382812 134.425781 895.082031 133.859375 895.675781 C 133.292969 896.261719 132.605469 896.558594 131.796875 896.558594 L 108.257812 896.558594 C 107.449219 896.558594 106.75 896.28125 106.183594 895.703125 C 105.617188 895.136719 105.339844 894.449219 105.339844 893.640625 L 105.339844 887.070312 C 107.214844 884.65625 109.15625 882.324219 111.171875 880.09375 Z M 153.984375 856.296875 L 171.757812 856.296875 L 171.757812 890.722656 L 153.984375 890.722656 Z M 148.5625 854.097656 C 148.347656 854.699219 148.21875 855.332031 148.21875 856.019531 L 148.21875 890.9375 C 148.21875 892.488281 148.765625 893.808594 149.859375 894.902344 C 150.964844 896.011719 152.292969 896.558594 153.84375 896.558594 L 171.972656 896.558594 C 173.542969 896.558594 174.871094 896.011719 175.957031 894.902344 C 177.054688 893.808594 177.589844 892.488281 177.589844 890.9375 L 177.589844 856.019531 C 177.589844 854.488281 177.035156 853.167969 175.929688 852.0625 C 174.816406 850.945312 173.496094 850.390625 171.972656 850.390625 L 160.316406 850.390625 C 159.585938 850.601562 158.851562 850.816406 158.089844 851.019531 C 154.8125 851.886719 151.644531 852.925781 148.5625 854.097656 Z M 196.9375 856.296875 L 214.710938 856.296875 L 214.710938 890.722656 L 196.9375 890.722656 Z M 192.820312 852.0625 C 191.714844 853.167969 191.167969 854.488281 191.167969 856.019531 L 191.167969 890.9375 C 191.167969 892.488281 191.714844 893.808594 192.820312 894.902344 C 193.917969 896.011719 195.246094 896.558594 196.796875 896.558594 L 214.914062 896.558594 C 216.492188 896.558594 217.820312 896.011719 218.910156 894.902344 C 219.996094 893.808594 220.542969 892.488281 220.542969 890.9375 L 220.542969 856.019531 C 220.542969 854.488281 219.984375 853.167969 218.871094 852.0625 C 217.765625 850.945312 216.449219 850.390625 214.914062 850.390625 L 196.722656 850.390625 C 195.21875 850.390625 193.917969 850.945312 192.820312 852.0625 Z M 237.101562 875.652344 C 237.910156 875.652344 238.605469 875.941406 239.171875 876.515625 C 239.738281 877.09375 240.015625 877.78125 240.015625 878.5625 L 240.015625 890.722656 L 245.847656 890.722656 L 245.847656 850.464844 L 260.503906 850.464844 C 261.320312 850.464844 262 850.742188 262.574219 851.308594 C 263.140625 851.886719 263.421875 852.574219 263.421875 853.382812 C 263.421875 854.191406 263.140625 854.878906 262.574219 855.445312 C 262 856.011719 261.320312 856.296875 260.503906 856.296875 L 251.683594 856.296875 L 251.683594 890.722656 L 260.644531 890.722656 C 261.453125 890.722656 262.148438 891 262.714844 891.558594 C 263.273438 892.117188 263.558594 892.785156 263.558594 893.574219 C 263.558594 894.382812 263.273438 895.082031 262.714844 895.675781 C 262.148438 896.261719 261.453125 896.558594 260.644531 896.558594 L 237.101562 896.558594 C 236.292969 896.558594 235.605469 896.28125 235.039062 895.703125 C 234.472656 895.136719 234.183594 894.449219 234.183594 893.640625 L 234.183594 878.5625 C 234.183594 877.753906 234.472656 877.066406 235.039062 876.5 C 235.605469 875.929688 236.292969 875.652344 237.101562 875.652344 Z M 282.828125 856.296875 L 300.605469 856.296875 L 300.605469 890.722656 L 282.828125 890.722656 Z M 278.714844 852.0625 C 277.621094 853.167969 277.070312 854.488281 277.070312 856.019531 L 277.070312 890.9375 C 277.070312 892.488281 277.621094 893.808594 278.714844 894.902344 C 279.820312 896.011719 281.140625 896.558594 282.691406 896.558594 L 300.816406 896.558594 C 302.386719 896.558594 303.726562 896.011719 304.8125 894.902344 C 305.898438 893.808594 306.445312 892.488281 306.445312 890.9375 L 306.445312 856.019531 C 306.445312 854.488281 305.890625 853.167969 304.773438 852.0625 C 303.667969 850.945312 302.351562 850.390625 300.816406 850.390625 L 282.625 850.390625 C 281.121094 850.390625 279.820312 850.945312 278.714844 852.0625 Z M 352.027344 723.070312 L 334.261719 723.070312 L 334.261719 688.644531 L 352.027344 688.644531 Z M 352.238281 682.738281 L 334.046875 682.738281 C 332.542969 682.738281 331.242188 683.292969 330.136719 684.410156 C 329.039062 685.515625 328.492188 686.84375 328.492188 688.367188 L 328.492188 723.285156 C 328.492188 724.835938 329.039062 726.15625 330.136719 727.261719 C 331.242188 728.355469 332.5625 728.90625 334.113281 728.90625 L 352.238281 728.90625 C 353.808594 728.90625 355.144531 728.355469 356.234375 727.261719 C 357.320312 726.15625 357.867188 724.835938 357.867188 723.285156 L 357.867188 688.367188 C 357.867188 686.84375 357.308594 685.515625 356.195312 684.410156 C 355.089844 683.292969 353.773438 682.738281 352.238281 682.738281 Z M 397.96875 723.070312 C 398.777344 723.070312 399.472656 723.347656 400.039062 723.90625 C 400.605469 724.464844 400.882812 725.132812 400.882812 725.921875 C 400.882812 726.730469 400.605469 727.429688 400.039062 728.023438 C 399.472656 728.609375 398.777344 728.90625 397.96875 728.90625 L 374.425781 728.90625 C 373.617188 728.90625 372.929688 728.625 372.363281 728.058594 C 371.796875 727.492188 371.507812 726.804688 371.507812 725.996094 L 371.507812 710.917969 C 371.507812 710.101562 371.796875 709.414062 372.363281 708.84375 C 372.929688 708.277344 373.617188 708 374.425781 708 C 375.242188 708 375.929688 708.289062 376.496094 708.863281 C 377.0625 709.449219 377.339844 710.128906 377.339844 710.917969 L 377.339844 723.070312 L 383.171875 723.070312 L 383.171875 682.8125 L 397.828125 682.8125 C 398.636719 682.8125 399.332031 683.097656 399.890625 683.664062 C 400.464844 684.234375 400.746094 684.921875 400.746094 685.730469 C 400.746094 686.546875 400.464844 687.234375 399.890625 687.792969 C 399.332031 688.367188 398.636719 688.644531 397.828125 688.644531 L 389.003906 688.644531 L 389.003906 723.070312 Z M 437.929688 723.070312 L 420.152344 723.070312 L 420.152344 688.644531 L 437.929688 688.644531 Z M 438.140625 682.738281 L 419.949219 682.738281 C 418.445312 682.738281 417.144531 683.292969 416.039062 684.410156 C 414.945312 685.515625 414.394531 686.84375 414.394531 688.367188 L 414.394531 723.285156 C 414.394531 724.835938 414.945312 726.15625 416.039062 727.261719 C 417.144531 728.355469 418.464844 728.90625 420.015625 728.90625 L 438.140625 728.90625 C 439.710938 728.90625 441.050781 728.355469 442.136719 727.261719 C 443.222656 726.15625 443.761719 724.835938 443.761719 723.285156 L 443.761719 688.367188 C 443.761719 686.84375 443.214844 685.515625 442.097656 684.410156 C 440.984375 683.292969 439.664062 682.738281 438.140625 682.738281 Z M 469.078125 682.8125 L 483.730469 682.8125 C 484.539062 682.8125 485.226562 683.097656 485.792969 683.664062 C 486.359375 684.234375 486.648438 684.921875 486.648438 685.730469 C 486.648438 686.546875 486.359375 687.234375 485.792969 687.792969 C 485.226562 688.367188 484.539062 688.644531 483.730469 688.644531 L 474.910156 688.644531 L 474.910156 723.070312 L 483.871094 723.070312 C 484.679688 723.070312 485.367188 723.347656 485.933594 723.90625 C 486.5 724.464844 486.785156 725.132812 486.785156 725.921875 C 486.785156 726.730469 486.5 727.429688 485.933594 728.023438 C 485.367188 728.609375 484.679688 728.90625 483.871094 728.90625 L 460.328125 728.90625 C 459.519531 728.90625 458.824219 728.625 458.265625 728.058594 C 457.691406 727.492188 457.414062 726.804688 457.414062 725.996094 L 457.414062 710.917969 C 457.414062 710.101562 457.691406 709.414062 458.265625 708.84375 C 458.824219 708.277344 459.519531 708 460.328125 708 C 461.136719 708 461.824219 708.289062 462.390625 708.863281 C 462.957031 709.449219 463.246094 710.128906 463.246094 710.917969 L 463.246094 723.070312 L 469.078125 723.070312 Z M 523.832031 723.070312 L 506.058594 723.070312 L 506.058594 688.644531 L 523.832031 688.644531 Z M 524.046875 682.738281 L 505.84375 682.738281 C 504.339844 682.738281 503.039062 683.292969 501.941406 684.410156 C 500.835938 685.515625 500.289062 686.84375 500.289062 688.367188 L 500.289062 723.285156 C 500.289062 724.835938 500.835938 726.15625 501.941406 727.261719 C 503.039062 728.355469 504.367188 728.90625 505.917969 728.90625 L 524.046875 728.90625 C 525.613281 728.90625 526.941406 728.355469 528.03125 727.261719 C 529.125 726.15625 529.664062 724.835938 529.664062 723.285156 L 529.664062 688.367188 C 529.664062 686.84375 529.105469 685.515625 528 684.410156 C 526.886719 683.292969 525.566406 682.738281 524.046875 682.738281 Z M 569.765625 723.070312 C 570.582031 723.070312 571.269531 723.347656 571.835938 723.90625 C 572.402344 724.464844 572.679688 725.132812 572.679688 725.921875 C 572.679688 726.730469 572.402344 727.429688 571.835938 728.023438 C 571.269531 728.609375 570.582031 728.90625 569.765625 728.90625 L 546.230469 728.90625 C 545.421875 728.90625 544.726562 728.625 544.160156 728.058594 C 543.59375 727.492188 543.304688 726.804688 543.304688 725.996094 L 543.304688 710.917969 C 543.304688 710.101562 543.59375 709.414062 544.160156 708.84375 C 544.726562 708.277344 545.421875 708 546.230469 708 C 547.039062 708 547.726562 708.289062 548.292969 708.863281 C 548.859375 709.449219 549.148438 710.128906 549.148438 710.917969 L 549.148438 723.070312 L 554.980469 723.070312 L 554.980469 682.8125 L 569.632812 682.8125 C 570.441406 682.8125 571.128906 683.097656 571.695312 683.664062 C 572.261719 684.234375 572.542969 684.921875 572.542969 685.730469 C 572.542969 686.546875 572.261719 687.234375 571.695312 687.792969 C 571.128906 688.367188 570.441406 688.644531 569.632812 688.644531 L 560.8125 688.644531 L 560.8125 723.070312 Z M 612.714844 723.070312 C 613.53125 723.070312 614.21875 723.347656 614.785156 723.90625 C 615.34375 724.464844 615.632812 725.132812 615.632812 725.921875 C 615.632812 726.730469 615.34375 727.429688 614.785156 728.023438 C 614.21875 728.609375 613.53125 728.90625 612.714844 728.90625 L 589.171875 728.90625 C 588.367188 728.90625 587.679688 728.625 587.113281 728.058594 C 586.546875 727.492188 586.257812 726.804688 586.257812 725.996094 L 586.257812 710.917969 C 586.257812 710.101562 586.546875 709.414062 587.113281 708.84375 C 587.679688 708.277344 588.367188 708 589.171875 708 C 589.992188 708 590.679688 708.289062 591.246094 708.863281 C 591.8125 709.449219 592.097656 710.128906 592.097656 710.917969 L 592.097656 723.070312 L 597.929688 723.070312 L 597.929688 682.8125 L 612.578125 682.8125 C 613.394531 682.8125 614.082031 683.097656 614.636719 683.664062 C 615.214844 684.234375 615.492188 684.921875 615.492188 685.730469 C 615.492188 686.546875 615.214844 687.234375 614.636719 687.792969 C 614.082031 688.367188 613.394531 688.644531 612.578125 688.644531 L 603.753906 688.644531 L 603.753906 723.070312 Z M 652.675781 723.070312 L 634.902344 723.070312 L 634.902344 688.644531 L 652.675781 688.644531 Z M 656.882812 727.261719 C 657.96875 726.15625 658.507812 724.835938 658.507812 723.285156 L 658.507812 688.367188 C 658.507812 686.84375 657.960938 685.515625 656.847656 684.410156 C 655.730469 683.292969 654.421875 682.738281 652.890625 682.738281 L 634.699219 682.738281 C 633.191406 682.738281 631.894531 683.292969 630.789062 684.410156 C 629.691406 685.515625 629.144531 686.84375 629.144531 688.367188 L 629.144531 723.285156 C 629.144531 724.835938 629.691406 726.15625 630.789062 727.261719 C 631.894531 728.355469 633.210938 728.90625 634.761719 728.90625 L 652.890625 728.90625 C 654.460938 728.90625 655.796875 728.355469 656.882812 727.261719 Z M 171.683594 606.707031 L 189.46875 606.707031 L 189.46875 641.128906 L 171.683594 641.128906 Z M 171.546875 646.964844 L 189.671875 646.964844 C 191.242188 646.964844 192.582031 646.417969 193.667969 645.3125 C 194.753906 644.214844 195.300781 642.886719 195.300781 641.335938 L 195.300781 606.417969 C 195.300781 604.894531 194.746094 603.574219 193.628906 602.460938 C 192.523438 601.355469 191.207031 600.796875 189.671875 600.796875 L 171.480469 600.796875 C 169.976562 600.796875 168.675781 601.355469 167.570312 602.460938 C 166.476562 603.574219 165.925781 604.894531 165.925781 606.417969 L 165.925781 641.335938 C 165.925781 642.886719 166.476562 644.214844 167.570312 645.3125 C 168.675781 646.417969 169.996094 646.964844 171.546875 646.964844 Z M 213.921875 626.914062 C 214.496094 627.5 214.777344 628.1875 214.777344 628.96875 L 214.777344 641.128906 L 220.609375 641.128906 L 220.609375 600.863281 L 235.261719 600.863281 C 236.070312 600.863281 236.765625 601.148438 237.324219 601.714844 C 237.898438 602.28125 238.179688 602.96875 238.179688 603.789062 C 238.179688 604.597656 237.898438 605.285156 237.324219 605.851562 C 236.765625 606.417969 236.070312 606.707031 235.261719 606.707031 L 226.441406 606.707031 L 226.441406 641.128906 L 235.402344 641.128906 C 236.210938 641.128906 236.898438 641.410156 237.472656 641.964844 C 238.03125 642.515625 238.316406 643.191406 238.316406 643.972656 C 238.316406 644.789062 238.03125 645.488281 237.472656 646.074219 C 236.898438 646.667969 236.210938 646.964844 235.402344 646.964844 L 211.859375 646.964844 C 211.050781 646.964844 210.363281 646.675781 209.789062 646.109375 C 209.230469 645.542969 208.945312 644.855469 208.945312 644.046875 L 208.945312 628.96875 C 208.945312 628.160156 209.230469 627.472656 209.789062 626.90625 C 210.363281 626.328125 211.050781 626.050781 211.859375 626.050781 C 212.667969 626.050781 213.355469 626.339844 213.921875 626.914062 Z M 257.589844 606.707031 L 275.363281 606.707031 L 275.363281 641.128906 L 257.589844 641.128906 Z M 257.449219 646.964844 L 275.578125 646.964844 C 277.144531 646.964844 278.472656 646.417969 279.570312 645.3125 C 280.65625 644.214844 281.195312 642.886719 281.195312 641.335938 L 281.195312 606.417969 C 281.195312 604.894531 280.648438 603.574219 279.53125 602.460938 C 278.417969 601.355469 277.101562 600.796875 275.578125 600.796875 L 257.382812 600.796875 C 255.878906 600.796875 254.570312 601.355469 253.472656 602.460938 C 252.367188 603.574219 251.820312 604.894531 251.820312 606.417969 L 251.820312 641.335938 C 251.820312 642.886719 252.367188 644.214844 253.472656 645.3125 C 254.570312 646.417969 255.898438 646.964844 257.449219 646.964844 Z M 295.691406 646.109375 C 295.125 645.542969 294.847656 644.855469 294.847656 644.046875 L 294.847656 628.96875 C 294.847656 628.160156 295.125 627.472656 295.691406 626.90625 C 296.257812 626.328125 296.945312 626.050781 297.761719 626.050781 C 298.570312 626.050781 299.257812 626.339844 299.824219 626.914062 C 300.390625 627.5 300.679688 628.1875 300.679688 628.96875 L 300.679688 641.128906 L 306.511719 641.128906 L 306.511719 600.863281 L 321.164062 600.863281 C 321.972656 600.863281 322.660156 601.148438 323.226562 601.714844 C 323.792969 602.28125 324.082031 602.96875 324.082031 603.789062 C 324.082031 604.597656 323.792969 605.285156 323.226562 605.851562 C 322.660156 606.417969 321.972656 606.707031 321.164062 606.707031 L 312.34375 606.707031 L 312.34375 641.128906 L 321.304688 641.128906 C 322.113281 641.128906 322.800781 641.410156 323.367188 641.964844 C 323.933594 642.515625 324.222656 643.191406 324.222656 643.972656 C 324.222656 644.789062 323.933594 645.488281 323.367188 646.074219 C 322.800781 646.667969 322.113281 646.964844 321.304688 646.964844 L 297.761719 646.964844 C 296.945312 646.964844 296.257812 646.675781 295.691406 646.109375 Z M 343.492188 606.707031 L 361.265625 606.707031 L 361.265625 641.128906 L 343.492188 641.128906 Z M 343.277344 600.796875 C 341.773438 600.796875 340.472656 601.355469 339.378906 602.460938 C 338.273438 603.574219 337.722656 604.894531 337.722656 606.417969 L 337.722656 641.335938 C 337.722656 642.886719 338.273438 644.214844 339.378906 645.3125 C 340.472656 646.417969 341.800781 646.964844 343.351562 646.964844 L 361.46875 646.964844 C 363.050781 646.964844 364.378906 646.417969 365.464844 645.3125 C 366.558594 644.214844 367.097656 642.886719 367.097656 641.335938 L 367.097656 606.417969 C 367.097656 604.894531 366.539062 603.574219 365.4375 602.460938 C 364.320312 601.355469 363.003906 600.796875 361.46875 600.796875 Z M 407.199219 641.128906 C 408.007812 641.128906 408.703125 641.410156 409.269531 641.964844 C 409.835938 642.515625 410.113281 643.191406 410.113281 643.972656 C 410.113281 644.789062 409.835938 645.488281 409.269531 646.074219 C 408.703125 646.667969 408.007812 646.964844 407.199219 646.964844 L 383.664062 646.964844 C 382.847656 646.964844 382.160156 646.675781 381.59375 646.109375 C 381.027344 645.542969 380.742188 644.855469 380.742188 644.046875 L 380.742188 628.96875 C 380.742188 628.160156 381.027344 627.472656 381.59375 626.90625 C 382.160156 626.328125 382.847656 626.050781 383.664062 626.050781 C 384.472656 626.050781 385.160156 626.339844 385.726562 626.914062 C 386.292969 627.5 386.582031 628.1875 386.582031 628.96875 L 386.582031 641.128906 L 392.414062 641.128906 L 392.414062 600.863281 L 407.070312 600.863281 C 407.875 600.863281 408.5625 601.148438 409.128906 601.714844 C 409.695312 602.28125 409.976562 602.96875 409.976562 603.789062 C 409.976562 604.597656 409.695312 605.285156 409.128906 605.851562 C 408.5625 606.417969 407.875 606.707031 407.070312 606.707031 L 398.246094 606.707031 L 398.246094 641.128906 Z M 428.679688 626.914062 C 429.246094 627.5 429.523438 628.1875 429.523438 628.96875 L 429.523438 641.128906 L 435.367188 641.128906 L 435.367188 600.863281 L 450.011719 600.863281 C 450.828125 600.863281 451.515625 601.148438 452.074219 601.714844 C 452.648438 602.28125 452.925781 602.96875 452.925781 603.789062 C 452.925781 604.597656 452.648438 605.285156 452.074219 605.851562 C 451.515625 606.417969 450.828125 606.707031 450.011719 606.707031 L 441.1875 606.707031 L 441.1875 641.128906 L 450.148438 641.128906 C 450.957031 641.128906 451.65625 641.410156 452.222656 641.964844 C 452.777344 642.515625 453.066406 643.191406 453.066406 643.972656 C 453.066406 644.789062 452.777344 645.488281 452.222656 646.074219 C 451.65625 646.667969 450.957031 646.964844 450.148438 646.964844 L 426.609375 646.964844 C 425.800781 646.964844 425.113281 646.675781 424.546875 646.109375 C 423.980469 645.542969 423.691406 644.855469 423.691406 644.046875 L 423.691406 628.96875 C 423.691406 628.160156 423.980469 627.472656 424.546875 626.90625 C 425.113281 626.328125 425.800781 626.050781 426.609375 626.050781 C 427.417969 626.050781 428.113281 626.339844 428.679688 626.914062 Z M 472.335938 606.707031 L 490.109375 606.707031 L 490.109375 641.128906 L 472.335938 641.128906 Z M 472.132812 600.796875 C 470.628906 600.796875 469.328125 601.355469 468.222656 602.460938 C 467.125 603.574219 466.578125 604.894531 466.578125 606.417969 L 466.578125 641.335938 C 466.578125 642.886719 467.125 644.214844 468.222656 645.3125 C 469.328125 646.417969 470.644531 646.964844 472.195312 646.964844 L 490.324219 646.964844 C 491.894531 646.964844 493.230469 646.417969 494.316406 645.3125 C 495.40625 644.214844 495.953125 642.886719 495.953125 641.335938 L 495.953125 606.417969 C 495.953125 604.894531 495.394531 603.574219 494.28125 602.460938 C 493.175781 601.355469 491.855469 600.796875 490.324219 600.796875 Z M 363.160156 580.578125 L 345.386719 580.578125 L 345.386719 546.152344 L 363.160156 546.152344 Z M 367.367188 584.769531 C 368.453125 583.671875 368.992188 582.34375 368.992188 580.792969 L 368.992188 545.875 C 368.992188 544.351562 368.433594 543.03125 367.332031 541.917969 C 366.214844 540.8125 364.898438 540.253906 363.375 540.253906 L 345.171875 540.253906 C 343.675781 540.253906 342.367188 540.8125 341.273438 541.917969 C 340.175781 543.03125 339.617188 544.351562 339.617188 545.875 L 339.617188 580.792969 C 339.617188 582.34375 340.175781 583.671875 341.273438 584.769531 C 342.367188 585.875 343.695312 586.421875 345.246094 586.421875 L 363.375 586.421875 C 364.945312 586.421875 366.273438 585.875 367.367188 584.769531 Z M 409.09375 580.578125 C 409.910156 580.578125 410.597656 580.867188 411.164062 581.425781 C 411.730469 581.972656 412.019531 582.640625 412.019531 583.429688 C 412.019531 584.238281 411.730469 584.945312 411.164062 585.53125 C 410.597656 586.125 409.910156 586.421875 409.09375 586.421875 L 385.558594 586.421875 C 384.753906 586.421875 384.054688 586.132812 383.488281 585.566406 C 382.921875 585 382.636719 584.3125 382.636719 583.503906 L 382.636719 568.425781 C 382.636719 567.617188 382.921875 566.929688 383.488281 566.363281 C 384.054688 565.785156 384.753906 565.507812 385.558594 565.507812 C 386.367188 565.507812 387.054688 565.796875 387.621094 566.371094 C 388.1875 566.957031 388.476562 567.636719 388.476562 568.425781 L 388.476562 580.578125 L 394.308594 580.578125 L 394.308594 542.714844 L 375.039062 542.714844 C 373.367188 542.714844 372 541.359375 372 539.679688 L 372 535.960938 L 399.277344 535.960938 L 399.277344 539.679688 C 399.277344 539.902344 399.183594 540.105469 399.136719 540.320312 L 408.964844 540.320312 C 409.769531 540.320312 410.457031 540.605469 411.023438 541.175781 C 411.589844 541.742188 411.871094 542.4375 411.871094 543.246094 C 411.871094 544.054688 411.589844 544.742188 411.023438 545.308594 C 410.457031 545.875 409.769531 546.152344 408.964844 546.152344 L 400.140625 546.152344 L 400.140625 580.578125 Z M 449.0625 580.578125 L 431.28125 580.578125 L 431.28125 546.152344 L 449.0625 546.152344 Z M 453.261719 584.769531 C 454.347656 583.671875 454.894531 582.34375 454.894531 580.792969 L 454.894531 545.875 C 454.894531 544.351562 454.339844 543.03125 453.222656 541.917969 C 452.117188 540.8125 450.800781 540.253906 449.269531 540.253906 L 431.074219 540.253906 C 429.570312 540.253906 428.269531 540.8125 427.175781 541.917969 C 426.070312 543.03125 425.523438 544.351562 425.523438 545.875 L 425.523438 580.792969 C 425.523438 582.34375 426.070312 583.671875 427.175781 584.769531 C 428.269531 585.875 429.589844 586.421875 431.148438 586.421875 L 449.269531 586.421875 C 450.847656 586.421875 452.175781 585.875 453.261719 584.769531 Z M 492.003906 580.578125 L 474.238281 580.578125 L 474.238281 546.152344 L 492.003906 546.152344 Z M 496.210938 584.769531 C 497.300781 583.671875 497.847656 582.34375 497.847656 580.792969 L 497.847656 545.875 C 497.847656 544.351562 497.289062 543.03125 496.175781 541.917969 C 495.070312 540.8125 493.75 540.253906 492.21875 540.253906 L 474.027344 540.253906 C 472.523438 540.253906 471.222656 540.8125 470.117188 541.917969 C 469.019531 543.03125 468.472656 544.351562 468.472656 545.875 L 468.472656 580.792969 C 468.472656 582.34375 469.019531 583.671875 470.117188 584.769531 C 471.222656 585.875 472.539062 586.421875 474.089844 586.421875 L 492.21875 586.421875 C 493.789062 586.421875 495.125 585.875 496.210938 584.769531 Z M 534.957031 580.578125 L 517.183594 580.578125 L 517.183594 546.152344 L 534.957031 546.152344 Z M 540.796875 545.875 C 540.796875 544.351562 540.242188 543.03125 539.128906 541.917969 C 538.023438 540.8125 536.703125 540.253906 535.171875 540.253906 L 516.976562 540.253906 C 515.472656 540.253906 514.171875 540.8125 513.066406 541.917969 C 511.972656 543.03125 511.414062 544.351562 511.414062 545.875 L 511.414062 580.792969 C 511.414062 582.34375 511.972656 583.671875 513.066406 584.769531 C 514.171875 585.875 515.492188 586.421875 517.042969 586.421875 L 535.171875 586.421875 C 536.742188 586.421875 538.070312 585.875 539.164062 584.769531 C 540.25 583.671875 540.796875 582.34375 540.796875 580.792969 Z M 560.273438 580.578125 L 566.105469 580.578125 L 566.105469 540.320312 L 580.761719 540.320312 C 581.566406 540.320312 582.253906 540.605469 582.820312 541.175781 C 583.386719 541.742188 583.675781 542.4375 583.675781 543.246094 C 583.675781 544.054688 583.386719 544.742188 582.820312 545.308594 C 582.253906 545.875 581.566406 546.152344 580.761719 546.152344 L 571.9375 546.152344 L 571.9375 580.578125 L 580.898438 580.578125 C 581.707031 580.578125 582.394531 580.867188 582.960938 581.425781 C 583.527344 581.972656 583.816406 582.640625 583.816406 583.429688 C 583.816406 584.238281 583.527344 584.945312 582.960938 585.53125 C 582.394531 586.125 581.707031 586.421875 580.898438 586.421875 L 557.355469 586.421875 C 556.550781 586.421875 555.863281 586.132812 555.296875 585.566406 C 554.71875 585 554.441406 584.3125 554.441406 583.503906 L 554.441406 568.425781 C 554.441406 567.617188 554.71875 566.929688 555.296875 566.363281 C 555.863281 565.785156 556.550781 565.507812 557.355469 565.507812 C 558.164062 565.507812 558.851562 565.796875 559.417969 566.371094 C 559.996094 566.957031 560.273438 567.636719 560.273438 568.425781 Z M 623.851562 580.578125 C 624.660156 580.578125 625.347656 580.867188 625.914062 581.425781 C 626.480469 581.972656 626.765625 582.640625 626.765625 583.429688 C 626.765625 584.238281 626.480469 584.945312 625.914062 585.53125 C 625.347656 586.125 624.660156 586.421875 623.851562 586.421875 L 600.308594 586.421875 C 599.5 586.421875 598.8125 586.132812 598.238281 585.566406 C 597.671875 585 597.390625 584.3125 597.390625 583.503906 L 597.390625 568.425781 C 597.390625 567.617188 597.671875 566.929688 598.238281 566.363281 C 598.8125 565.785156 599.5 565.507812 600.308594 565.507812 C 601.117188 565.507812 601.804688 565.796875 602.371094 566.371094 C 602.9375 566.957031 603.226562 567.636719 603.226562 568.425781 L 603.226562 580.578125 L 609.058594 580.578125 L 609.058594 540.320312 L 623.710938 540.320312 C 624.519531 540.320312 625.207031 540.605469 625.773438 541.175781 C 626.339844 541.742188 626.628906 542.4375 626.628906 543.246094 C 626.628906 544.054688 626.339844 544.742188 625.773438 545.308594 C 625.207031 545.875 624.519531 546.152344 623.710938 546.152344 L 614.890625 546.152344 L 614.890625 580.578125 Z M 669.644531 561.726562 L 669.644531 580.792969 C 669.644531 582.34375 669.105469 583.671875 668.007812 584.769531 C 666.921875 585.875 665.59375 586.421875 664.027344 586.421875 L 645.898438 586.421875 C 644.347656 586.421875 643.019531 585.875 641.921875 584.769531 C 640.816406 583.671875 640.269531 582.34375 640.269531 580.792969 L 640.269531 545.875 C 640.269531 544.351562 640.816406 543.03125 641.921875 541.917969 C 642.277344 541.554688 642.664062 541.277344 643.074219 541.023438 C 645.394531 542.707031 647.699219 544.425781 650.011719 546.152344 L 646.035156 546.152344 L 646.035156 580.578125 L 663.8125 580.578125 L 663.8125 556.941406 C 665.753906 558.511719 667.703125 560.109375 669.644531 561.726562 Z M 1078.402344 683.601562 L 1068.195312 683.601562 L 1068.195312 666.328125 L 1066.597656 666.328125 L 1066.597656 683.601562 L 1057.433594 683.601562 C 1054.601562 683.601562 1052.242188 682.792969 1050.414062 681.195312 C 1048.527344 679.539062 1047.535156 677.265625 1047.535156 674.617188 C 1047.535156 672.542969 1048.15625 670.777344 1049.335938 669.441406 C 1048.210938 667.878906 1047.914062 666.246094 1047.914062 664.953125 C 1047.914062 662.425781 1048.890625 660.214844 1050.726562 658.570312 C 1052.546875 656.945312 1055.222656 656.152344 1058.910156 656.152344 L 1081.867188 656.152344 L 1081.867188 666.328125 L 1078.402344 666.328125 Z M 1092.964844 665.910156 L 1095.816406 665.910156 L 1095.816406 656.152344 L 1083.066406 656.152344 L 1083.066406 683.601562 L 1092.964844 683.601562 L 1092.964844 665.910156 " fill-opacity="1" fill-rule="nonzero"/><path fill="#e2c4ba" d="M 561.628906 845.558594 L 561.628906 874.777344 L 547.503906 885.761719 C 547.503906 885.761719 595.832031 938.972656 613.300781 938.972656 C 630.65625 938.972656 678.167969 889.96875 678.167969 889.96875 L 662.085938 878.355469 L 662.085938 848.855469 C 669.023438 841.691406 673.394531 832.160156 673.914062 820.238281 L 675.199219 788.917969 C 684.558594 789.773438 699.621094 762.855469 691.550781 750.164062 C 686.980469 742.980469 681.148438 747.8125 676.628906 754.046875 L 678.253906 714.140625 C 678.875 700.214844 667.75 688.589844 653.820312 688.589844 L 572.765625 688.589844 C 558.832031 688.589844 547.71875 700.214844 548.332031 714.140625 L 550.390625 764.546875 C 547.316406 756.09375 540.121094 739.738281 533.488281 750.164062 C 524.964844 763.570312 542.265625 792.875 551.367188 788.5 L 552.667969 820.238281 C 553.113281 830.414062 556.382812 838.839844 561.628906 845.558594 Z M 834.503906 1165.171875 L 914.640625 1118.796875 L 949.390625 1169.074219 L 949.464844 1169.0625 L 963.117188 1189.28125 C 976.398438 1208.960938 955.855469 1252.984375 932.238281 1255.425781 L 720.738281 1260.816406 L 719.617188 1249.898438 L 780.972656 1249.898438 L 782.933594 1229.578125 C 783.648438 1226.390625 781.558594 1223.289062 778.707031 1223.289062 L 716.867188 1223.289062 L 713.785156 1193.398438 L 845.3125 1179.824219 Z M 351.058594 1257.332031 L 473.421875 1242.363281 L 471.84375 1227.671875 C 471.351562 1225.453125 472.800781 1223.289062 474.796875 1223.289062 L 560.691406 1223.289062 L 558.0625 1163.925781 L 429.199219 1169.648438 L 435.253906 1158.460938 L 342.265625 1127.746094 L 313.105469 1191.6875 L 310.828125 1196.4375 C 300.566406 1217.851562 327.351562 1258.382812 351.058594 1257.332031 " fill-opacity="1" fill-rule="nonzero"/><g clip-path="url(#id2)"><path fill="#000000" d="M 1021.578125 1176.832031 L 1021.578125 1184.589844 C 1021.578125 1185.984375 1020.445312 1187.117188 1019.050781 1187.117188 C 1017.65625 1187.117188 1016.523438 1185.984375 1016.523438 1184.589844 L 1016.523438 1176.832031 C 1016.523438 1175.4375 1017.65625 1174.304688 1019.050781 1174.304688 C 1020.445312 1174.304688 1021.578125 1175.4375 1021.578125 1176.832031 Z M 1028.664062 1184.589844 L 1028.664062 1176.832031 C 1028.664062 1175.4375 1029.796875 1174.304688 1031.199219 1174.304688 C 1032.589844 1174.304688 1033.722656 1175.4375 1033.722656 1176.832031 L 1033.722656 1184.589844 C 1033.722656 1185.984375 1032.589844 1187.117188 1031.199219 1187.117188 C 1029.796875 1187.117188 1028.664062 1185.984375 1028.664062 1184.589844 Z M 1040.800781 1184.589844 L 1040.800781 1176.832031 C 1040.800781 1175.4375 1041.933594 1174.304688 1043.328125 1174.304688 C 1044.730469 1174.304688 1045.863281 1175.4375 1045.863281 1176.832031 L 1045.863281 1184.589844 C 1045.863281 1185.984375 1044.730469 1187.117188 1043.328125 1187.117188 C 1041.933594 1187.117188 1040.800781 1185.984375 1040.800781 1184.589844 Z M 1052.949219 1184.589844 L 1052.949219 1176.832031 C 1052.949219 1175.4375 1054.082031 1174.304688 1055.472656 1174.304688 C 1056.875 1174.304688 1058 1175.4375 1058 1176.832031 L 1058 1184.589844 C 1058 1185.984375 1056.875 1187.117188 1055.472656 1187.117188 C 1054.082031 1187.117188 1052.949219 1185.984375 1052.949219 1184.589844 Z M 1065.085938 1184.589844 L 1065.085938 1176.832031 C 1065.085938 1175.4375 1066.210938 1174.304688 1067.613281 1174.304688 C 1069.003906 1174.304688 1070.136719 1175.4375 1070.136719 1176.832031 L 1070.136719 1184.589844 C 1070.136719 1185.984375 1069.003906 1187.117188 1067.613281 1187.117188 C 1066.210938 1187.117188 1065.085938 1185.984375 1065.085938 1184.589844 Z M 1077.222656 1184.589844 L 1077.222656 1176.832031 C 1077.222656 1175.4375 1078.355469 1174.304688 1079.757812 1174.304688 C 1081.152344 1174.304688 1082.285156 1175.4375 1082.285156 1176.832031 L 1082.285156 1184.589844 C 1082.285156 1185.984375 1081.152344 1187.117188 1079.757812 1187.117188 C 1078.355469 1187.117188 1077.222656 1185.984375 1077.222656 1184.589844 Z M 1089.363281 1184.589844 L 1089.363281 1176.832031 C 1089.363281 1175.4375 1090.496094 1174.304688 1091.886719 1174.304688 C 1093.289062 1174.304688 1094.421875 1175.4375 1094.421875 1176.832031 L 1094.421875 1184.589844 C 1094.421875 1185.984375 1093.289062 1187.117188 1091.886719 1187.117188 C 1090.496094 1187.117188 1089.363281 1185.984375 1089.363281 1184.589844 Z M 1101.507812 1176.832031 C 1101.507812 1175.4375 1102.640625 1174.304688 1104.035156 1174.304688 C 1105.425781 1174.304688 1106.558594 1175.4375 1106.558594 1176.832031 L 1106.558594 1184.589844 C 1106.558594 1185.984375 1105.425781 1187.117188 1104.035156 1187.117188 C 1102.640625 1187.117188 1101.507812 1185.984375 1101.507812 1184.589844 Z M 1099.753906 1199.113281 L 1026.175781 1199.113281 C 1024.773438 1199.113281 1023.636719 1197.976562 1023.636719 1196.585938 C 1023.636719 1195.179688 1024.773438 1194.046875 1026.175781 1194.046875 L 1099.753906 1194.046875 C 1101.15625 1194.046875 1102.28125 1195.179688 1102.28125 1196.585938 C 1102.28125 1197.976562 1101.15625 1199.113281 1099.753906 1199.113281 Z M 579.21875 747.023438 C 583.816406 746.996094 588.320312 748.15625 591.933594 750.515625 C 593.101562 751.289062 593.425781 752.859375 592.664062 754.027344 C 591.902344 755.191406 590.335938 755.523438 589.164062 754.753906 C 586.445312 752.96875 582.859375 751.957031 579.328125 752.078125 C 575.800781 752.160156 572.28125 753.296875 569.664062 755.199219 C 569.214844 755.523438 568.695312 755.683594 568.183594 755.683594 C 567.394531 755.683594 566.632812 755.320312 566.132812 754.640625 C 565.316406 753.507812 565.566406 751.929688 566.691406 751.113281 C 570.171875 748.574219 574.621094 747.125 579.21875 747.023438 Z M 642.117188 747.554688 C 646.714844 747.273438 651.273438 748.390625 655.015625 750.621094 C 656.214844 751.335938 656.605469 752.886719 655.890625 754.085938 C 655.183594 755.285156 653.632812 755.671875 652.425781 754.96875 C 649.585938 753.265625 645.945312 752.429688 642.40625 752.609375 C 638.90625 752.800781 635.46875 754.058594 632.980469 756.035156 C 632.515625 756.40625 631.957031 756.585938 631.410156 756.585938 C 630.667969 756.585938 629.933594 756.257812 629.433594 755.636719 C 628.558594 754.539062 628.746094 752.953125 629.832031 752.078125 C 633.164062 749.421875 637.53125 747.8125 642.117188 747.554688 Z M 634.613281 833.730469 C 634.835938 835.105469 633.910156 836.40625 632.535156 836.636719 C 631.902344 836.742188 621.871094 838.367188 610.550781 838.367188 C 604.65625 838.367188 598.40625 837.921875 592.953125 836.601562 C 591.597656 836.265625 590.761719 834.902344 591.097656 833.542969 C 591.421875 832.1875 592.796875 831.34375 594.140625 831.6875 C 609.058594 835.308594 631.484375 831.6875 631.707031 831.648438 C 633.109375 831.398438 634.390625 832.355469 634.613281 833.730469 Z M 901.972656 1091.371094 C 901.414062 1091.628906 845.871094 1116.808594 829.609375 1134.054688 C 829.117188 1134.574219 828.449219 1134.84375 827.78125 1134.84375 C 827.15625 1134.84375 826.527344 1134.621094 826.035156 1134.15625 C 825.023438 1133.199219 824.976562 1131.601562 825.933594 1130.578125 C 842.863281 1112.617188 897.570312 1087.8125 899.890625 1086.761719 C 901.171875 1086.183594 902.660156 1086.761719 903.234375 1088.023438 C 903.8125 1089.296875 903.246094 1090.804688 901.972656 1091.371094 Z M 440.585938 1138.589844 C 439.972656 1138.589844 439.347656 1138.363281 438.855469 1137.910156 C 411.65625 1112.507812 355.804688 1100.761719 355.25 1100.640625 C 353.882812 1100.363281 353 1099.027344 353.28125 1097.660156 C 353.558594 1096.285156 354.90625 1095.410156 356.269531 1095.691406 C 358.609375 1096.171875 414.0625 1107.824219 442.3125 1134.210938 C 443.332031 1135.160156 443.390625 1136.765625 442.433594 1137.789062 C 441.941406 1138.320312 441.261719 1138.589844 440.585938 1138.589844 Z M 551.480469 730.976562 C 551.226562 725.679688 556.167969 721.667969 561.292969 722.988281 L 609.148438 735.363281 C 609.148438 735.363281 639.84375 727.875 659.800781 723.078125 C 667.480469 721.238281 674.835938 727.101562 674.769531 735 L 674.59375 756.351562 L 672.988281 760.375 C 671.945312 758.925781 670.246094 757.976562 668.324219 757.976562 L 622.941406 757.976562 C 619.78125 757.976562 617.210938 760.550781 617.210938 763.710938 L 617.210938 764.007812 L 604.5625 764.007812 L 604.5625 763.144531 C 604.5625 760.300781 602.25 757.976562 599.40625 757.976562 L 552.871094 757.976562 C 552.824219 757.976562 552.789062 757.996094 552.742188 757.996094 Z M 552.769531 771.980469 C 552.824219 772.195312 552.890625 772.417969 552.9375 772.621094 L 553.4375 772.871094 L 552.984375 763.144531 L 599.40625 763.042969 L 599.5 791.140625 L 552.871094 791.230469 L 552.769531 791.140625 Z M 622.273438 763.710938 C 622.273438 763.347656 622.570312 763.042969 622.941406 763.042969 L 668.324219 763.042969 C 668.707031 763.042969 669.003906 763.347656 669.003906 763.710938 L 669.003906 790.5625 C 669.003906 790.933594 668.707031 791.230469 668.324219 791.230469 L 622.941406 791.230469 C 622.570312 791.230469 622.273438 790.933594 622.273438 790.5625 Z M 538.652344 664.496094 C 527.769531 681.945312 526.507812 710.257812 536.230469 747.328125 C 537.25 746.753906 538.273438 746.707031 539.285156 747.03125 L 547.71875 768.1875 L 547.71875 791.140625 C 547.71875 793.980469 550.03125 796.296875 552.871094 796.296875 L 599.40625 796.296875 C 602.25 796.296875 604.5625 793.980469 604.5625 791.140625 L 604.5625 769.0625 L 617.210938 769.0625 L 617.210938 790.5625 C 617.210938 793.722656 619.78125 796.296875 622.941406 796.296875 L 668.324219 796.296875 C 671.484375 796.296875 674.054688 793.722656 674.054688 790.5625 L 674.054688 769.890625 C 674.527344 769.621094 674.917969 769.183594 675.132812 768.644531 L 683.648438 747.292969 C 685.402344 746.4375 687.167969 746.296875 688.839844 747.320312 C 695.609375 727.511719 701.765625 700 693.84375 679.132812 C 665.761719 605.125 579.285156 653.117188 579.285156 653.117188 C 579.285156 653.117188 551.421875 644.027344 538.652344 664.496094 Z M 182.402344 429.875 C 183.171875 431.042969 182.847656 432.613281 181.679688 433.375 C 181.25 433.664062 180.769531 433.792969 180.292969 433.792969 C 179.46875 433.792969 178.660156 433.394531 178.175781 432.660156 C 138.476562 372.285156 176.644531 331.191406 177.035156 330.78125 C 178 329.777344 179.597656 329.742188 180.609375 330.707031 C 181.621094 331.671875 181.648438 333.269531 180.683594 334.285156 C 180.320312 334.65625 144.894531 372.832031 182.402344 429.875 Z M 198.652344 425.703125 C 198.226562 425.988281 197.742188 426.121094 197.269531 426.121094 C 196.445312 426.121094 195.636719 425.71875 195.152344 424.976562 C 164.015625 377.636719 194.019531 345.332031 194.328125 345.015625 C 195.292969 344.003906 196.878906 343.964844 197.890625 344.933594 C 198.90625 345.890625 198.941406 347.496094 197.984375 348.507812 C 196.851562 349.699219 170.515625 378.324219 199.378906 422.199219 C 200.148438 423.371094 199.824219 424.9375 198.652344 425.703125 Z M 215.453125 411.828125 C 215.015625 412.117188 214.535156 412.246094 214.0625 412.246094 C 213.242188 412.246094 212.4375 411.847656 211.953125 411.105469 C 191.652344 380.257812 211.320312 359.089844 211.527344 358.886719 C 212.492188 357.875 214.078125 357.835938 215.082031 358.804688 C 216.09375 359.761719 216.132812 361.359375 215.183594 362.371094 C 214.480469 363.113281 198.160156 380.945312 216.167969 408.328125 C 216.941406 409.496094 216.613281 411.066406 215.453125 411.828125 Z M 286.554688 435.570312 C 286.070312 435.570312 285.597656 435.4375 285.160156 435.152344 C 284 434.390625 283.675781 432.820312 284.445312 431.648438 C 321.871094 374.746094 287.632812 337.609375 286.15625 336.050781 C 285.199219 335.035156 285.234375 333.4375 286.246094 332.480469 C 287.25 331.515625 288.847656 331.550781 289.8125 332.554688 C 290.203125 332.964844 328.371094 374.058594 288.671875 434.433594 C 288.179688 435.167969 287.378906 435.570312 286.554688 435.570312 Z M 271.683594 426.75 C 271.203125 427.496094 270.402344 427.894531 269.578125 427.894531 C 269.105469 427.894531 268.621094 427.753906 268.195312 427.476562 C 267.023438 426.703125 266.699219 425.144531 267.46875 423.972656 C 296.324219 380.097656 270.003906 351.480469 268.863281 350.285156 C 267.90625 349.269531 267.933594 347.671875 268.945312 346.707031 C 269.957031 345.738281 271.554688 345.777344 272.519531 346.789062 C 272.828125 347.105469 302.832031 379.410156 271.683594 426.75 Z M 252.785156 414.023438 C 252.3125 414.023438 251.832031 413.890625 251.394531 413.605469 C 250.234375 412.832031 249.90625 411.273438 250.679688 410.101562 C 268.6875 382.71875 252.378906 364.90625 251.664062 364.15625 C 250.707031 363.144531 250.742188 361.542969 251.746094 360.578125 C 252.757812 359.613281 254.355469 359.648438 255.320312 360.660156 C 255.527344 360.867188 275.1875 382.03125 254.894531 412.878906 C 254.410156 413.621094 253.605469 414.023438 252.785156 414.023438 Z M 996.816406 1161.527344 L 1123.910156 1161.527344 L 1114.613281 1170.902344 L 1006.113281 1170.902344 Z M 991.851562 1016.183594 C 991.851562 1009.195312 997.503906 1003.539062 1004.488281 1003.539062 C 1011.472656 1003.539062 1017.128906 1009.195312 1017.128906 1016.183594 L 1017.128906 1058.46875 L 1033.695312 1058.46875 L 1033.695312 991.664062 C 1033.695312 982.148438 1041.402344 974.429688 1050.921875 974.429688 L 1067.507812 974.429688 C 1077.027344 974.429688 1084.738281 982.148438 1084.738281 991.664062 L 1084.738281 1085.945312 L 1098.089844 1085.945312 L 1098.089844 1043.648438 C 1098.089844 1036.664062 1103.746094 1031.003906 1110.730469 1031.003906 C 1117.703125 1031.003906 1123.371094 1036.664062 1123.371094 1043.648438 L 1123.371094 1086.929688 C 1123.371094 1100.335938 1112.46875 1111.234375 1099.066406 1111.234375 L 1084.738281 1111.234375 L 1084.738281 1148.539062 L 1033.695312 1148.539062 L 1033.695312 1083.769531 L 1016.152344 1083.769531 C 1002.753906 1083.769531 991.851562 1072.859375 991.851562 1059.453125 Z M 169.160156 1156.445312 L 169.160156 1207.296875 L 161.488281 1207.296875 C 160.179688 1207.296875 159.007812 1206.46875 158.570312 1205.234375 L 151.335938 1184.8125 C 148.367188 1176.441406 147.910156 1167.445312 150.019531 1158.804688 C 150.351562 1157.421875 151.589844 1156.445312 153.019531 1156.445312 Z M 169.160156 1143.800781 L 153.019531 1143.800781 C 145.746094 1143.800781 139.460938 1148.742188 137.734375 1155.8125 C 135.046875 1166.851562 135.632812 1178.34375 139.421875 1189.050781 L 146.65625 1209.460938 C 148.886719 1215.734375 154.839844 1219.941406 161.488281 1219.941406 L 169.160156 1219.941406 L 169.160156 1247.472656 C 169.160156 1252.460938 173.207031 1256.503906 178.1875 1256.503906 L 252.367188 1256.503906 C 257.355469 1256.503906 261.394531 1252.460938 261.394531 1247.472656 L 261.394531 1136.792969 L 169.160156 1136.792969 Z M 585.234375 1119.078125 C 585.234375 1103.902344 599.75 1091.59375 617.65625 1091.59375 C 635.5625 1091.59375 650.078125 1103.902344 650.078125 1119.078125 C 650.078125 1134.257812 635.5625 1146.558594 617.65625 1146.558594 C 599.75 1146.558594 585.234375 1134.257812 585.234375 1119.078125 Z M 470.542969 997.972656 C 469.476562 968.945312 458.667969 946.621094 458.175781 945.625 C 457.5625 944.371094 456.046875 943.851562 454.785156 944.464844 C 453.539062 945.085938 453.019531 946.601562 453.632812 947.855469 C 453.753906 948.089844 464.378906 970.089844 465.484375 997.972656 L 455.972656 997.972656 C 449.34375 997.972656 444.019531 1003.464844 444.242188 1010.097656 L 451.226562 1221.355469 C 451.433594 1227.691406 456.625 1232.710938 462.957031 1232.710938 L 781.921875 1232.710938 C 788.253906 1232.710938 793.4375 1227.691406 793.652344 1221.355469 L 800.632812 1010.097656 C 800.847656 1003.464844 795.535156 997.972656 788.894531 997.972656 L 771.324219 997.972656 C 770.664062 984.546875 779.886719 964.265625 779.980469 964.058594 C 780.566406 962.785156 780.019531 961.289062 778.746094 960.707031 C 777.472656 960.121094 775.976562 960.675781 775.394531 961.941406 C 774.984375 962.84375 765.679688 983.300781 766.265625 997.972656 L 626.21875 997.972656 L 626.851562 952.390625 C 626.914062 947.910156 624.511719 943.765625 620.582031 941.601562 L 616.246094 939.214844 L 643.976562 925.824219 C 649.101562 923.222656 653.597656 920.410156 657.433594 924.265625 L 670.582031 937.476562 C 673.042969 939.949219 677.257812 938.257812 677.332031 934.765625 L 678.242188 890.425781 C 679.171875 882.675781 662.085938 849.105469 662.085938 849.105469 C 662.085938 849.105469 653.792969 903.890625 615.054688 938.554688 L 606.652344 933.929688 C 568.863281 903.3125 561.628906 845.652344 561.628906 845.652344 C 561.628906 845.652344 546.648438 878.011719 547.503906 885.761719 L 545.003906 925.5 C 544.78125 929.023438 548.757812 931.222656 551.617188 929.160156 L 554.859375 926.839844 C 561.070312 922.359375 570.273438 921.328125 577.925781 924.226562 L 600.390625 933.417969 L 600.390625 997.972656 Z M 15.480469 1257.070312 L 450.429688 1257.070312 L 448.441406 1240.980469 C 447.867188 1238.757812 449.539062 1236.59375 451.832031 1236.59375 L 801.46875 1236.59375 C 804.757812 1236.59375 807.152344 1239.695312 806.328125 1242.882812 L 804.757812 1257.070312 L 1023.460938 1257.070312 L 1020.203125 1249.414062 L 1103.636719 1249.414062 L 1100.367188 1257.070312 L 1174.519531 1257.070312 C 1182.742188 1257.070312 1189.398438 1263.734375 1189.398438 1271.957031 L 1189.398438 1292.097656 C 1189.398438 1300.324219 1182.742188 1306.984375 1174.519531 1306.984375 L 1090.671875 1306.984375 L 1090.671875 1377.339844 L 102.5625 1377.339844 L 102.5625 1306.984375 L 15.480469 1306.984375 C 7.269531 1306.984375 0.613281 1300.324219 0.613281 1292.097656 L 0.613281 1271.957031 C 0.613281 1263.734375 7.269531 1257.070312 15.480469 1257.070312 Z M 604.386719 814.292969 C 598.90625 812.304688 606.761719 796.910156 610.800781 789.707031 C 611.683594 788.136719 613.847656 788.285156 614.5 789.949219 C 617.191406 796.925781 622.496094 810.996094 622.449219 813.761719 C 622.394531 817.488281 611.554688 816.902344 604.386719 814.292969 Z M 640.398438 766.765625 C 642.992188 766.765625 645.089844 769.980469 645.089844 773.949219 C 645.089844 777.917969 642.992188 781.132812 640.398438 781.132812 C 637.808594 781.132812 635.710938 777.917969 635.710938 773.949219 C 635.710938 769.980469 637.808594 766.765625 640.398438 766.765625 Z M 581.445312 766.765625 C 584.039062 766.765625 586.144531 769.980469 586.144531 773.949219 C 586.144531 777.917969 584.039062 781.132812 581.445312 781.132812 C 578.867188 781.132812 576.765625 777.917969 576.765625 773.949219 C 576.765625 769.980469 578.867188 766.765625 581.445312 766.765625 Z M 615.148438 896.492188 C 606.296875 899.1875 569.308594 862.003906 562.296875 846.429688 C 572.132812 858.351562 588.515625 864.503906 607.015625 864.503906 L 619.570312 864.503906 C 635.699219 864.503906 650.214844 859.828125 660.199219 850.734375 C 647.691406 865.414062 622.421875 894.261719 615.148438 896.492188 Z M 667.320312 842.269531 C 667.320312 842.269531 667.265625 842.34375 667.164062 842.464844 C 667.210938 842.398438 667.238281 842.332031 667.285156 842.269531 Z M 301.414062 503.0625 C 301.414062 506.785156 298.394531 509.804688 294.671875 509.804688 C 290.945312 509.804688 287.929688 506.785156 287.929688 503.0625 C 287.929688 499.335938 290.945312 496.316406 294.671875 496.316406 C 298.394531 496.316406 301.414062 499.335938 301.414062 503.0625 Z M 275.113281 503.0625 C 275.113281 506.785156 272.085938 509.804688 268.371094 509.804688 C 264.636719 509.804688 261.617188 506.785156 261.617188 503.0625 C 261.617188 499.335938 264.636719 496.316406 268.371094 496.316406 C 272.085938 496.316406 275.113281 499.335938 275.113281 503.0625 Z M 248.375 503.0625 C 248.375 506.785156 245.347656 509.804688 241.625 509.804688 C 237.898438 509.804688 234.882812 506.785156 234.882812 503.0625 C 234.882812 499.335938 237.898438 496.316406 241.625 496.316406 C 245.347656 496.316406 248.375 499.335938 248.375 503.0625 Z M 370.609375 503.0625 C 370.609375 499.335938 373.625 496.316406 377.351562 496.316406 C 381.074219 496.316406 384.09375 499.335938 384.09375 503.0625 C 384.09375 506.785156 381.074219 509.804688 377.351562 509.804688 C 373.625 509.804688 370.609375 506.785156 370.609375 503.0625 Z M 410.644531 521.671875 L 417.097656 521.671875 L 417.097656 482.621094 L 410.644531 482.621094 L 410.644531 473.199219 C 410.644531 471.515625 409.277344 470.160156 407.605469 470.160156 L 371.6875 470.160156 L 305.164062 453.558594 C 302.84375 452.972656 300.484375 454.382812 299.90625 456.707031 L 298.792969 461.15625 C 298.21875 463.480469 299.628906 465.832031 301.953125 466.414062 L 316.957031 470.160156 L 241.503906 470.160156 L 241.503906 380.5 C 241.503906 378.101562 239.5625 376.160156 237.175781 376.160156 L 232.589844 376.160156 C 230.191406 376.160156 228.25 378.101562 228.25 380.5 L 228.25 470.160156 L 204.671875 470.160156 C 203 470.160156 201.636719 471.515625 201.636719 473.199219 L 201.636719 482.621094 L 195.664062 482.621094 L 195.664062 521.671875 L 201.636719 521.671875 L 201.636719 532.921875 C 201.636719 534.605469 203 535.960938 204.671875 535.960938 L 407.605469 535.960938 C 409.277344 535.960938 410.644531 534.605469 410.644531 532.921875 Z M 792.40625 525.945312 L 562.714844 525.945312 L 562.714844 390.234375 L 792.40625 390.234375 Z M 556.726562 458.089844 C 556.726562 462.019531 553.53125 465.21875 549.601562 465.21875 C 545.675781 465.21875 542.480469 462.019531 542.480469 458.089844 C 542.480469 454.160156 545.675781 450.972656 549.601562 450.972656 C 553.53125 450.972656 556.726562 454.160156 556.726562 458.089844 Z M 821.128906 525.984375 L 821.128906 390.199219 C 821.128906 382.339844 814.757812 375.972656 806.902344 375.972656 L 548.089844 375.972656 C 540.230469 375.972656 533.871094 382.339844 533.871094 390.199219 L 533.871094 525.984375 C 533.871094 533.84375 540.230469 540.207031 548.089844 540.207031 L 806.902344 540.207031 C 814.757812 540.207031 821.128906 533.84375 821.128906 525.984375 Z M 1156.644531 698.1875 L 1156.644531 702.480469 L 1152.355469 702.480469 L 1152.355469 698.1875 Z M 1144.3125 698.1875 L 1144.3125 702.480469 L 1140.019531 702.480469 L 1140.019531 698.1875 Z M 1050.058594 674.617188 C 1050.058594 672.199219 1051.144531 670.566406 1053.328125 669.699219 C 1051.40625 668.503906 1050.441406 666.921875 1050.441406 664.953125 C 1050.441406 663.132812 1051.101562 661.636719 1052.417969 660.445312 C 1053.738281 659.265625 1055.902344 658.679688 1058.910156 658.679688 L 1064.0625 658.679688 L 1064.0625 681.074219 L 1057.433594 681.074219 C 1055.214844 681.074219 1053.429688 680.480469 1052.085938 679.289062 C 1050.726562 678.109375 1050.058594 676.546875 1050.058594 674.617188 Z M 1067.222656 658.679688 L 1079.339844 658.679688 L 1079.339844 663.792969 L 1075.867188 663.792969 L 1075.867188 681.074219 L 1070.722656 681.074219 L 1070.722656 663.792969 L 1067.222656 663.792969 Z M 1085.601562 658.679688 L 1093.289062 658.679688 L 1093.289062 663.382812 L 1090.4375 663.382812 L 1090.4375 681.074219 L 1085.601562 681.074219 Z M 982.480469 826.917969 L 1002.902344 826.917969 C 1002.660156 827.308594 1002.484375 827.738281 1002.484375 828.230469 L 1002.484375 859.988281 C 1002.484375 867.726562 1005.519531 874.964844 1011.027344 880.371094 C 1016.414062 885.679688 1023.5 888.578125 1031.03125 888.578125 C 1031.207031 888.578125 1031.375 888.566406 1031.550781 888.566406 L 1121.671875 887.007812 C 1136.902344 886.746094 1149.222656 874.601562 1149.726562 859.363281 L 1150.386719 746.96875 L 1159.515625 746.96875 C 1161.101562 746.96875 1162.394531 745.675781 1162.394531 744.085938 L 1162.394531 710.992188 L 1149.214844 710.992188 L 1149.214844 698.1875 L 1146.761719 698.1875 L 1146.761719 710.992188 L 1133.585938 710.992188 L 1133.585938 744.085938 C 1133.585938 745.675781 1134.875 746.96875 1136.453125 746.96875 L 1145.332031 746.96875 L 1144.671875 859.261719 C 1144.265625 871.742188 1134.125 881.730469 1121.585938 881.941406 L 1031.457031 883.511719 C 1025.144531 883.597656 1019.105469 881.226562 1014.574219 876.769531 C 1010.042969 872.308594 1007.542969 866.351562 1007.542969 859.988281 L 1007.542969 828.230469 C 1007.542969 827.738281 1007.359375 827.308594 1007.125 826.917969 L 1100.96875 826.917969 C 1105.828125 826.917969 1109.773438 822.980469 1109.773438 818.113281 L 1109.773438 655.839844 C 1109.773438 650.980469 1105.828125 647.03125 1100.96875 647.03125 L 982.480469 647.03125 C 977.613281 647.03125 973.675781 650.980469 973.675781 655.839844 L 973.675781 818.113281 C 973.675781 822.980469 977.613281 826.917969 982.480469 826.917969 Z M 1058.566406 671.867188 L 1058.992188 671.867188 L 1058.992188 676.714844 C 1057.703125 676.6875 1056.746094 676.492188 1056.097656 676.113281 C 1055.457031 675.742188 1055.140625 675.128906 1055.140625 674.261719 C 1055.140625 672.664062 1056.28125 671.867188 1058.566406 671.867188 Z M 1055.585938 665.445312 C 1055.585938 664.535156 1055.863281 663.902344 1056.402344 663.550781 C 1056.941406 663.1875 1057.804688 663 1058.992188 662.972656 L 1058.992188 667.804688 C 1056.726562 667.75 1055.585938 666.960938 1055.585938 665.445312 Z M 1141.570312 535.105469 C 1139.808594 536.296875 1137.617188 536.667969 1135.554688 536.121094 L 1131.449219 535.023438 C 1131.5625 534.773438 1131.671875 534.53125 1131.753906 534.25 L 1159.652344 435.140625 C 1159.707031 434.964844 1159.71875 434.777344 1159.746094 434.613281 L 1164 435.996094 C 1165.382812 436.453125 1166.609375 437.277344 1167.480469 438.441406 C 1171.121094 443.234375 1178.914062 458.109375 1170.316406 490.816406 C 1163.171875 517.984375 1148.015625 530.738281 1141.570312 535.105469 Z M 1106.113281 527.03125 C 1106.011719 527.421875 1105.949219 527.804688 1105.917969 528.195312 L 1104.398438 527.785156 C 1100.441406 526.726562 1098.117188 522.621094 1099.261719 518.679688 L 1124.578125 431.070312 C 1125.730469 427.09375 1129.945312 424.855469 1133.882812 426.148438 L 1134.707031 426.417969 C 1134.429688 426.882812 1134.179688 427.375 1134.023438 427.914062 Z M 983.601562 537.652344 L 979.5 538.75 C 977.4375 539.296875 975.246094 538.925781 973.480469 537.726562 C 967.035156 533.371094 951.878906 520.613281 944.738281 493.445312 C 936.136719 460.738281 943.921875 445.863281 947.5625 441.070312 C 948.441406 439.90625 949.667969 439.082031 951.054688 438.625 L 955.304688 437.242188 C 955.335938 437.417969 955.34375 437.59375 955.398438 437.769531 L 983.296875 536.890625 C 983.378906 537.160156 983.492188 537.402344 983.601562 537.652344 Z M 1015.792969 521.308594 L 990.476562 433.699219 C 989.324219 429.722656 985.109375 427.496094 981.171875 428.777344 L 980.34375 429.046875 C 980.621094 429.511719 980.871094 430.003906 981.019531 430.550781 L 1008.9375 529.660156 C 1009.039062 530.050781 1009.105469 530.441406 1009.132812 530.824219 L 1010.65625 530.414062 C 1014.613281 529.355469 1016.933594 525.25 1015.792969 521.308594 " fill-opacity="1" fill-rule="nonzero"/></g></svg>